<svg xmlns="http://www.w3.org/2000/svg" width="34.568" height="46.251" viewBox="0 0 34.568 46.251">
  <g id="Layer_6" data-name="Layer 6" transform="translate(-4.784 -2.091)">
    <path id="Path_118" data-name="Path 118" d="M22.284,48.251a4.609,4.609,0,0,1-3.71-1.959C18.02,45.555,5,28.479,5,19.284a17.284,17.284,0,0,1,34.568,0c0,9.218-13.02,26.271-13.574,27.009A4.609,4.609,0,0,1,22.284,48.251ZM19.816,26.075c-8.268.013,17.46-15.059,17.447-6.792,0,8.411-12.2,19.241-12.064,19.494.431.618-7.378-.969-6.625-.969s.812-2.935,1.243-3.552c.138-.184,10.765-5.691,10.765-14.1C30.568,11.887,28.084,26.088,19.816,26.075Z" transform="translate(-0.216 0.091)" fill="#233867"/>
    <text id="FPB" transform="translate(10.784 22.091)" fill="#fff" font-size="12" font-family="AvenirLTStd-Black, Avenir LT Std" font-weight="800" text-decoration="underline"><tspan x="0" y="0">FPB</tspan></text>
  </g>
</svg>
